# Blender 5.0.1
# www.blender.org
mtllib character.mtl
o Cube
v 0.714026 2.285974 -1.000000
v 0.777737 -1.000000 -0.777737
v 0.714026 2.285974 1.000000
v 0.777737 -1.000000 0.777737
v -0.714026 2.285974 -1.000000
v -0.777737 -1.000000 -0.777737
v -0.714026 2.285974 1.000000
v -0.777737 -1.000000 0.777737
v 0.714026 3.714026 1.000000
v -0.714026 3.714026 1.000000
v 0.714026 3.714026 -1.000000
v -0.714026 3.714026 -1.000000
v 1.000000 2.000000 1.000000
v -1.000000 2.000000 1.000000
v -1.000000 2.000000 -1.000000
v 1.000000 2.000000 -1.000000
v 0.478280 4.000000 0.478280
v -0.478280 4.000000 0.478280
v -0.478280 4.000000 -0.478280
v 0.478280 4.000000 -0.478280
v 0.608726 2.391274 2.702275
v -0.608726 2.391274 2.702275
v -0.608726 2.391274 -2.702275
v 0.608726 2.391274 -2.702275
v 0.608726 3.608726 2.702275
v -0.608726 3.608726 2.702275
v -0.608726 3.608726 -2.702275
v 0.608726 3.608726 -2.702275
v 0.608726 2.391274 3.850949
v -0.608726 2.391274 3.850949
v -0.608726 2.391274 -3.850949
v 0.608726 2.391274 -3.850949
v 0.608726 3.608726 3.850949
v -0.608726 3.608726 3.850949
v -0.608726 3.608726 -3.850949
v 0.608726 3.608726 -3.850949
v 0.344250 2.655751 5.478239
v -0.344250 2.655751 5.478239
v -0.344250 2.655751 -5.478239
v 0.344250 2.655751 -5.478239
v 0.344250 3.344250 5.478239
v -0.344250 3.344250 5.478239
v -0.344250 3.344250 -5.478239
v 0.344250 3.344250 -5.478239
v -0.777737 -1.871852 -0.777737
v -0.411983 -3.000000 -0.411983
v -0.411983 -3.000000 0.411983
v -0.777737 -1.871852 0.777737
v 0.777737 -1.871852 -0.777737
v 0.411983 -3.000000 -0.411983
v 0.411983 -3.000000 0.411983
v 0.777737 -1.871852 0.777737
v -0.454150 -2.418031 -2.000000
v -0.411982 -3.200000 -1.000000
v -0.411983 -3.200000 1.000000
v -0.454150 -2.418031 2.000000
v 0.454150 -2.418031 -2.000000
v 0.411983 -3.200000 -1.000000
v 0.411982 -3.200000 1.000000
v 0.454150 -2.418031 2.000000
v -0.454150 -3.500000 -2.300000
v -0.411983 -3.500000 -1.200000
v -0.411983 -3.500000 1.200000
v -0.454150 -3.500000 2.300000
v 0.454150 -3.500000 -2.300000
v 0.411983 -3.500000 -1.200000
v 0.411983 -3.500000 1.200000
v 0.454150 -3.500000 2.300000
v -0.454149 -6.499383 -2.300000
v -0.411982 -6.499383 -1.200000
v -0.411982 -6.499383 1.200000
v -0.454149 -6.499383 2.300000
v 0.454150 -6.499383 -2.300000
v 0.411983 -6.499383 -1.200000
v 0.411983 -6.499383 1.200000
v 0.454150 -6.499383 2.300000
v 1.000000 4.000000 1.000000
v -1.000000 4.000000 1.000000
v 1.000000 4.000000 -1.000000
v -1.000000 4.000000 -1.000000
v 0.478280 4.470530 0.478280
v -0.478280 4.470530 0.478280
v 0.478280 4.470530 -0.478280
v -0.478280 4.470530 -0.478280
v 0.747074 4.714098 0.747074
v -0.747074 4.714098 0.747074
v 0.747074 4.714098 -0.747074
v -0.747074 4.714098 -0.747074
v 0.747074 6.411471 0.747074
v -0.747074 6.411471 0.747074
v 0.747074 6.411471 -0.747074
v -0.747074 6.411471 -0.747074
v 0.878909 6.893689 0.878909
v -0.878909 6.893689 0.878909
v 0.878909 6.893689 -0.878909
v -0.878909 6.893689 -0.878909
vn -1.0000 -0.0000 -0.0000
vn -0.0000 -0.0739 0.9973
vn -0.9973 -0.0739 -0.0000
vn 0.9973 -0.0739 -0.0000
vn -0.0000 -0.0739 -0.9973
vn 1.0000 -0.0000 -0.0000
vn 0.9981 -0.0000 0.0617
vn -0.0000 -0.9981 0.0617
vn -0.0000 -0.0000 1.0000
vn -0.0000 -0.0000 -1.0000
vn -0.9981 -0.0000 -0.0617
vn -0.0000 0.9981 -0.0617
vn -0.0000 -0.9981 -0.0617
vn 0.9981 -0.0000 -0.0617
vn -0.9981 -0.0000 0.0617
vn -0.0000 0.9981 0.0617
vn 0.9870 -0.0000 -0.1604
vn -0.0000 -0.9870 -0.1604
vn -0.0000 1.0000 -0.0000
vn -0.0000 -1.0000 -0.0000
vn -0.9870 -0.0000 0.1604
vn -0.0000 0.9870 0.1604
vn -0.0000 -0.9870 0.1604
vn 0.9870 -0.0000 0.1604
vn -0.9870 -0.0000 -0.1604
vn -0.0000 0.9870 -0.1604
vn -0.9513 -0.3084 -0.0000
vn -0.0000 0.9130 0.4080
vn -0.9647 -0.2544 -0.0676
vn 0.9513 -0.3084 -0.0000
vn -0.0000 0.2672 -0.9636
vn 0.9993 -0.0128 -0.0354
vn -0.0000 -0.9467 -0.3220
vn -0.0000 -0.9467 0.3220
vn 0.9647 -0.2544 0.0676
vn -0.0000 0.9130 -0.4080
vn 0.9647 -0.2544 -0.0676
vn -0.9647 -0.2544 0.0676
vn -0.9993 -0.0000 0.0383
vn 0.9993 -0.0000 0.0383
vn 0.9993 -0.0128 0.0354
vn -0.9993 -0.0128 0.0354
vn -0.0000 0.2672 0.9636
vn -0.0000 -0.5547 -0.8321
vn -0.0000 -0.5547 0.8320
vn -0.9993 -0.0128 -0.0354
vn -0.9993 -0.0000 -0.0383
vn 0.9993 -0.0000 -0.0383
vn -0.0000 -0.7410 -0.6715
vn 0.6715 -0.7410 -0.0000
vn -0.6715 -0.7410 -0.0000
vn -0.0000 -0.7410 0.6715
vn -0.9646 -0.2637 -0.0000
vn -0.0000 -0.2637 0.9646
vn -0.0000 -0.2637 -0.9646
vn 0.9646 -0.2637 -0.0000
vt 0.625000 0.250000
vt 0.625000 0.000000
vt 0.375000 0.750000
vt 0.625000 0.750000
vt 0.625000 1.000000
vt 0.375000 1.000000
vt 0.375000 0.000000
vt 0.375000 0.250000
vt 0.375000 0.500000
vt 0.625000 0.500000
vt 0.809785 0.565215
vt 0.809785 0.684785
vt 0.625000 0.785747
vt 0.625000 0.785747
vt 0.625000 0.964253
vt 0.625000 0.285747
vt 0.625000 0.464253
vt 0.625000 0.285747
vt 0.208790 0.583790
vt 0.208790 0.666210
vt 0.125000 0.750000
vt 0.125000 0.500000
vt 0.291210 0.666210
vt 0.291210 0.583790
vt 0.690215 0.684785
vt 0.875000 0.750000
vt 0.690215 0.565215
vt 0.875000 0.500000
s 0
usemtl Material
f 15/1/1 14/2/1 78/2/1 80/1/1
f 4/3/2 13/4/2 14/5/2 8/6/2
f 8/7/3 14/2/3 15/1/3 6/8/3
f 2/9/4 16/10/4 13/4/4 4/3/4
f 6/8/5 15/1/5 16/10/5 2/9/5
f 19/11/1 18/12/1 82/12/1 84/11/1
f 13/4/6 16/10/6 79/10/6 77/4/6
f 3/13/7 9/14/7 25/14/7 21/13/7
f 7/15/8 3/13/8 21/13/8 22/15/8
f 3/13/9 7/15/9 14/5/9 13/4/9
f 5/16/10 1/17/10 16/10/10 15/1/10
f 10/15/9 9/14/9 77/4/9 78/5/9
f 11/17/10 12/18/10 80/1/10 79/10/10
f 7/15/9 10/15/9 78/5/9 14/5/9
f 12/18/10 5/16/10 15/1/10 80/1/10
f 1/17/10 11/17/10 79/10/10 16/10/10
f 9/14/9 3/13/9 13/4/9 77/4/9
f 26/15/1 22/15/1 30/15/1 34/15/1
f 28/17/6 24/17/6 32/17/6 36/17/6
f 5/16/11 12/18/11 27/18/11 23/16/11
f 12/18/12 11/17/12 28/17/12 27/18/12
f 1/17/13 5/16/13 23/16/13 24/17/13
f 11/17/14 1/17/14 24/17/14 28/17/14
f 10/15/15 7/15/15 22/15/15 26/15/15
f 9/14/16 10/15/16 26/15/16 25/14/16
f 36/17/17 32/17/17 40/17/17 44/17/17
f 32/17/18 31/16/18 39/16/18 40/17/18
f 25/14/19 26/15/19 34/15/19 33/14/19
f 22/15/20 21/13/20 29/13/20 30/15/20
f 21/13/6 25/14/6 33/14/6 29/13/6
f 23/16/1 27/18/1 35/18/1 31/16/1
f 27/18/19 28/17/19 36/17/19 35/18/19
f 24/17/20 23/16/20 31/16/20 32/17/20
f 40/17/10 39/16/10 43/18/10 44/17/10
f 38/15/9 37/13/9 41/14/9 42/15/9
f 34/15/21 30/15/21 38/15/21 42/15/21
f 33/14/22 34/15/22 42/15/22 41/14/22
f 30/15/23 29/13/23 37/13/23 38/15/23
f 29/13/24 33/14/24 41/14/24 37/13/24
f 31/16/25 35/18/25 43/18/25 39/16/25
f 35/18/26 36/17/26 44/17/26 43/18/26
f 46/19/27 47/20/27 48/21/27 45/22/27
f 52/3/28 48/6/28 56/6/28 60/3/28
f 46/19/29 45/22/29 53/22/29 54/19/29
f 51/23/30 50/24/30 49/9/30 52/3/30
f 8/7/1 6/8/1 45/8/1 48/7/1
f 46/19/20 50/24/20 51/23/20 47/20/20
f 6/8/10 2/9/10 49/9/10 45/8/10
f 4/3/9 8/6/9 48/6/9 52/3/9
f 2/9/6 4/3/6 52/3/6 49/9/6
f 53/8/31 57/9/31 65/9/31 61/8/31
f 59/23/32 60/3/32 68/3/32 67/23/32
f 47/20/33 51/23/33 59/23/33 55/20/33
f 50/24/34 46/19/34 54/19/34 58/24/34
f 51/23/35 52/3/35 60/3/35 59/23/35
f 45/8/36 49/9/36 57/9/36 53/8/36
f 49/9/37 50/24/37 58/24/37 57/9/37
f 48/21/38 47/20/38 55/20/38 56/21/38
f 62/19/39 61/22/39 69/22/39 70/19/39
f 65/9/40 66/24/40 74/24/40 73/9/40
f 57/9/41 58/24/41 66/24/41 65/9/41
f 54/19/42 53/22/42 61/22/42 62/19/42
f 60/3/43 56/6/43 64/6/43 68/3/43
f 55/20/44 59/23/44 67/23/44 63/20/44
f 58/24/45 54/19/45 62/19/45 66/24/45
f 56/21/46 55/20/46 63/20/46 64/21/46
f 74/24/20 70/19/20 69/22/20 73/9/20
f 71/20/20 75/23/20 76/3/20 72/21/20
f 68/3/9 64/6/9 72/6/9 76/3/9
f 63/20/10 67/23/10 75/23/10 71/20/10
f 66/24/9 62/19/9 70/19/9 74/24/9
f 64/21/47 63/20/47 71/20/47 72/21/47
f 67/23/48 68/3/48 76/3/48 75/23/48
f 61/8/10 65/9/10 73/9/10 69/8/10
f 17/25/19 18/12/19 78/26/19 77/4/19
f 20/27/19 17/25/19 77/4/19 79/10/19
f 18/12/19 19/11/19 80/28/19 78/26/19
f 19/11/19 20/27/19 79/10/19 80/28/19
f 83/27/49 84/11/49 88/11/49 87/27/49
f 18/12/9 17/25/9 81/25/9 82/12/9
f 20/27/10 19/11/10 84/11/10 83/27/10
f 17/25/6 20/27/6 83/27/6 81/25/6
f 88/11/1 86/12/1 90/12/1 92/11/1
f 81/25/50 83/27/50 87/27/50 85/25/50
f 84/11/51 82/12/51 86/12/51 88/11/51
f 82/12/52 81/25/52 85/25/52 86/12/52
f 92/11/53 90/12/53 94/12/53 96/11/53
f 86/12/9 85/25/9 89/25/9 90/12/9
f 87/27/10 88/11/10 92/11/10 91/27/10
f 85/25/6 87/27/6 91/27/6 89/25/6
f 95/27/19 96/11/19 94/12/19 93/25/19
f 90/12/54 89/25/54 93/25/54 94/12/54
f 91/27/55 92/11/55 96/11/55 95/27/55
f 89/25/56 91/27/56 95/27/56 93/25/56
